<svg width="59" height="19" viewBox="0 0 59 19" fill="none" xmlns="http://www.w3.org/2000/svg">
<path d="M3.60243 13.0036L0.394531 1.41846H3.19323L4.31743 6.6701C4.60433 7.96361 4.81363 9.06662 4.95003 9.97913H5.03233C5.12643 9.32532 5.33813 8.22937 5.66503 6.68892L6.82913 1.41846H9.62783L6.37993 13.0036V18.561H3.60013V13.0036H3.60243Z" fill="white"/>
<path d="M10.4698 18.1937C9.90538 17.8127 9.50318 17.22 9.26328 16.4157C9.02578 15.6114 8.90588 14.5437 8.90588 13.2078V11.3898C8.90588 10.0422 9.04228 8.95805 9.31508 8.14196C9.58788 7.32588 10.0136 6.72851 10.5921 6.35457C11.1707 5.98063 11.9303 5.79248 12.8711 5.79248C13.7977 5.79248 14.5385 5.98298 15.0982 6.36398C15.6556 6.74497 16.0648 7.34234 16.3235 8.15137C16.5822 8.96275 16.7116 10.0422 16.7116 11.3898V13.2078C16.7116 14.5437 16.5846 15.6161 16.333 16.4251C16.0813 17.2365 15.6721 17.8292 15.1076 18.2031C14.5432 18.5771 13.7765 18.7652 12.8099 18.7652C11.8127 18.7675 11.0343 18.5747 10.4698 18.1937ZM13.6354 16.2323C13.7906 15.8231 13.8706 15.1575 13.8706 14.2309V10.3292C13.8706 9.43077 13.793 8.77225 13.6354 8.35833C13.4778 7.94206 13.2027 7.7351 12.8075 7.7351C12.4266 7.7351 12.1561 7.94206 12.0009 8.35833C11.8433 8.77461 11.7657 9.43077 11.7657 10.3292V14.2309C11.7657 15.1575 11.8409 15.8254 11.9915 16.2323C12.142 16.6415 12.4124 16.8461 12.8075 16.8461C13.2027 16.8461 13.4778 16.6415 13.6354 16.2323Z" fill="white"/>
<path d="M25.8154 18.5634H23.6094L23.3648 17.03H23.3037C22.7039 18.1871 21.8055 18.7656 20.6061 18.7656C19.7759 18.7656 19.1621 18.4928 18.767 17.9496C18.3719 17.4039 18.1743 16.5526 18.1743 15.3955V6.03751H20.9942V15.2308C20.9942 15.7906 21.0553 16.188 21.1776 16.4256C21.2999 16.6631 21.5045 16.783 21.7914 16.783C22.036 16.783 22.2712 16.7078 22.497 16.5573C22.7228 16.4067 22.8874 16.2162 22.9979 15.9858V6.03516H25.8154V18.5634Z" fill="white"/>
<path d="M33.4755 3.68758H30.6768V18.5629H27.9181V3.68758H25.1194V1.42041H33.4755V3.68758Z" fill="white"/>
<path d="M40.2768 18.5634H38.0708L37.8262 17.03H37.7651C37.1654 18.1871 36.267 18.7656 35.0675 18.7656C34.2373 18.7656 33.6235 18.4928 33.2284 17.9496C32.8333 17.4039 32.6357 16.5526 32.6357 15.3955V6.03751H35.4556V15.2308C35.4556 15.7906 35.5167 16.188 35.639 16.4256C35.7613 16.6631 35.9659 16.783 36.2529 16.783C36.4974 16.783 36.7326 16.7078 36.9584 16.5573C37.1842 16.4067 37.3488 16.2162 37.4593 15.9858V6.03516H40.2768V18.5634Z" fill="white"/>
<path d="M49.609 8.0387C49.4373 7.24849 49.1621 6.67699 48.7812 6.32186C48.4002 5.96674 47.8757 5.79035 47.2078 5.79035C46.6904 5.79035 46.2059 5.93616 45.7567 6.23014C45.3075 6.52412 44.9594 6.90747 44.7148 7.38489H44.6937V0.785645H41.9773V18.5608H44.3056L44.5925 17.3755H44.6537C44.8724 17.7988 45.1993 18.1304 45.6344 18.3774C46.0695 18.622 46.554 18.7443 47.0855 18.7443C48.038 18.7443 48.7412 18.3045 49.1904 17.4272C49.6396 16.5476 49.8653 15.1765 49.8653 13.3092V11.3266C49.8653 9.92722 49.7783 8.82892 49.609 8.0387ZM47.0243 13.1492C47.0243 14.0617 46.9867 14.7767 46.9114 15.2941C46.8362 15.8115 46.7115 16.1808 46.5328 16.3971C46.3564 16.6158 46.1165 16.724 45.8178 16.724C45.585 16.724 45.371 16.6699 45.1734 16.5594C44.9759 16.4512 44.816 16.2866 44.6937 16.0702V8.96062C44.7877 8.6196 44.9524 8.34209 45.1852 8.12337C45.4157 7.90465 45.6697 7.79646 45.9401 7.79646C46.2271 7.79646 46.4481 7.90935 46.6034 8.13278C46.7609 8.35855 46.8691 8.73485 46.9303 9.26636C46.9914 9.79787 47.022 10.5528 47.022 11.5335V13.1492H47.0243Z" fill="white"/>
<path d="M53.8657 13.8712C53.8657 14.6755 53.8892 15.2776 53.9363 15.6798C53.9833 16.0819 54.0821 16.3736 54.2326 16.5594C54.3831 16.7428 54.6136 16.8345 54.9264 16.8345C55.3474 16.8345 55.639 16.6699 55.7942 16.343C55.9518 16.0161 56.0365 15.4705 56.0506 14.7085L58.4824 14.8519C58.4965 14.9601 58.5035 15.1106 58.5035 15.3011C58.5035 16.4582 58.186 17.3237 57.5534 17.8952C56.9208 18.4667 56.0247 18.7536 54.8676 18.7536C53.4777 18.7536 52.504 18.3185 51.9466 17.446C51.3869 16.5735 51.1094 15.2259 51.1094 13.4008V11.2136C51.1094 9.33452 51.3987 7.96105 51.9772 7.09558C52.5558 6.2301 53.5459 5.79736 54.9499 5.79736C55.9165 5.79736 56.6597 5.97375 57.1771 6.32888C57.6945 6.684 58.059 7.23433 58.2707 7.98457C58.4824 8.7348 58.5882 9.76961 58.5882 11.0913V13.2362H53.8657V13.8712ZM54.2232 7.96811C54.0797 8.14449 53.9857 8.43377 53.9363 8.83593C53.8892 9.2381 53.8657 9.84722 53.8657 10.6657V11.5641H55.9283V10.6657C55.9283 9.86133 55.9001 9.25221 55.846 8.83593C55.7919 8.41966 55.6931 8.12803 55.5496 7.95635C55.4062 7.78702 55.1851 7.7 54.8864 7.7C54.5854 7.70235 54.3643 7.79172 54.2232 7.96811Z" fill="white"/>
</svg>
